{
  "accessors": [
    {
      "bufferView": 2,
      "componentType": 5126,
      "count": 377,
      "max": [
        73.03582000732422,
        28.62125015258789,
        154.28855895996094
      ],
      "min": [
        -73.03582000732422,
        -24.171749114990234,
        0.8196460008621216
      ],
      "type": "VEC3"
    },
    {
      "bufferView": 2,
      "byteOffset": 4524,
      "componentType": 5126,
      "count": 377,
      "max": [
        0.9950183629989624,
        0.9937902092933655,
        0.9731027483940125
      ],
      "min": [
        -0.994770348072052,
        -0.9974186420440674,
        -0.991283655166626
      ],
      "type": "VEC3"
    },
    {
      "bufferView": 1,
      "componentType": 5126,
      "count": 377,
      "max": [
        0.9644100069999695,
        0.9775410294532776
      ],
      "min": [
        0.022440999746322632,
        0.0224590003490448
      ],
      "type": "VEC2"
    },
    {
      "bufferView": 0,
      "componentType": 5125,
      "count": 1113,
      "type": "SCALAR"
    }
  ],
  "asset": {
    "extras": {
      "author": "ps1guy (https://sketchfab.com/ps1guy)",
      "license": "CC-BY-4.0 (http://creativecommons.org/licenses/by/4.0/)",
      "source": "https://sketchfab.com/3d-models/lowpoly-ps1n64-style-link-zelda-c54fc91c1a2b46d5aacef14f2df80b03",
      "title": "LowPoly PS1/N64 Style Link (Zelda)"
    },
    "generator": "Sketchfab-12.67.0",
    "version": "2.0"
  },
  "bufferViews": [
    {
      "buffer": 0,
      "byteLength": 4452,
      "name": "floatBufferViews",
      "target": 34963
    },
    {
      "buffer": 0,
      "byteLength": 3016,
      "byteOffset": 4452,
      "byteStride": 8,
      "name": "floatBufferViews",
      "target": 34962
    },
    {
      "buffer": 0,
      "byteLength": 9048,
      "byteOffset": 7468,
      "byteStride": 12,
      "name": "floatBufferViews",
      "target": 34962
    }
  ],
  "buffers": [
    {
      "byteLength": 16516,
      "uri": "scene.bin"
    }
  ],
  "images": [
    {
      "uri": "textures/Material01_baseColor.png"
    }
  ],
  "materials": [
    {
      "doubleSided": true,
      "name": "Material01",
      "pbrMetallicRoughness": {
        "baseColorTexture": {
          "index": 0
        },
        "metallicFactor": 0.0
      }
    }
  ],
  "meshes": [
    {
      "name": "Object_0",
      "primitives": [
        {
          "attributes": {
            "NORMAL": 1,
            "POSITION": 0,
            "TEXCOORD_0": 2
          },
          "indices": 3,
          "material": 0,
          "mode": 4
        }
      ]
    }
  ],
  "nodes": [
    {
      "children": [
        1
      ],
      "matrix": [
        1.0,
        0.0,
        0.0,
        0.0,
        0.0,
        2.220446049250313e-16,
        -1.0,
        0.0,
        0.0,
        1.0,
        2.220446049250313e-16,
        0.0,
        0.0,
        0.0,
        0.0,
        1.0
      ],
      "name": "Sketchfab_model"
    },
    {
      "children": [
        2
      ],
      "name": "Link Adult.obj.cleaner.materialmerger.gles"
    },
    {
      "mesh": 0,
      "name": "Object_2"
    }
  ],
  "samplers": [
    {
      "magFilter": 9729,
      "minFilter": 9987,
      "wrapS": 10497,
      "wrapT": 10497
    }
  ],
  "scene": 0,
  "scenes": [
    {
      "name": "Sketchfab_Scene",
      "nodes": [
        0
      ]
    }
  ],
  "textures": [
    {
      "sampler": 0,
      "source": 0
    }
  ]
}
